<svg width="20" height="20" viewBox="0 0 20 20" fill="none" xmlns="http://www.w3.org/2000/svg">
<path fill-rule="evenodd" clip-rule="evenodd" d="M5.25391 0.5C3.99413 0.5 2.78595 1.00045 1.89515 1.89124C1.00435 2.78204 0.503906 3.99022 0.503906 5.25V14.75C0.503906 16.0098 1.00435 17.218 1.89515 18.1088C2.78595 18.9996 3.99413 19.5 5.25391 19.5H14.7539C16.0137 19.5 17.2219 18.9996 18.1127 18.1088C19.0035 17.218 19.5039 16.0098 19.5039 14.75V5.25C19.5039 3.99022 19.0035 2.78204 18.1127 1.89124C17.2219 1.00045 16.0137 0.5 14.7539 0.5H5.25391ZM10.0039 6.54545C9.0877 6.54545 8.20903 6.90941 7.56117 7.55727C6.91332 8.20512 6.54936 9.0838 6.54936 10C6.54936 10.9162 6.91332 11.7949 7.56117 12.4427C8.20903 13.0906 9.0877 13.4545 10.0039 13.4545C10.9201 13.4545 11.7988 13.0906 12.4466 12.4427C13.0945 11.7949 13.4585 10.9162 13.4585 10C13.4585 9.0838 13.0945 8.20512 12.4466 7.55727C11.7988 6.90941 10.9201 6.54545 10.0039 6.54545ZM4.82209 10C4.82209 8.6257 5.36803 7.30768 6.33981 6.3359C7.31159 5.36412 8.6296 4.81818 10.0039 4.81818C11.3782 4.81818 12.6962 5.36412 13.668 6.3359C14.6398 7.30768 15.1857 8.6257 15.1857 10C15.1857 11.3743 14.6398 12.6923 13.668 13.6641C12.6962 14.6359 11.3782 15.1818 10.0039 15.1818C8.6296 15.1818 7.31159 14.6359 6.33981 13.6641C5.36803 12.6923 4.82209 11.3743 4.82209 10ZM15.1857 3.09091C14.7276 3.09091 14.2883 3.27289 13.9644 3.59682C13.6404 3.92074 13.4585 4.36008 13.4585 4.81818C13.4585 5.27628 13.6404 5.71562 13.9644 6.03955C14.2883 6.36347 14.7276 6.54545 15.1857 6.54545C15.6438 6.54545 16.0832 6.36347 16.4071 6.03955C16.731 5.71562 16.913 5.27628 16.913 4.81818C16.913 4.36008 16.731 3.92074 16.4071 3.59682C16.0832 3.27289 15.6438 3.09091 15.1857 3.09091Z" fill="#313131"/>
</svg>
